<mxfile host="app.diagrams.net" agent="Mozilla/5.0 (Windows NT 10.0; Win64; x64) AppleWebKit/537.36 (KHTML, like Gecko) Chrome/136.0.0.0 Safari/537.36 Edg/136.0.0.0" version="27.0.5">
  <diagram name="Página-1" id="69pVmFf4k-uzZrg5PMLr">
    <mxGraphModel dx="1710" dy="425" grid="1" gridSize="10" guides="1" tooltips="1" connect="1" arrows="1" fold="1" page="1" pageScale="1" pageWidth="827" pageHeight="1169" math="0" shadow="0">
      <root>
        <mxCell id="0" />
        <mxCell id="1" parent="0" />
        <mxCell id="kK68dIsaC33i2wqPtEw8-1" value="Actor" style="shape=umlActor;verticalLabelPosition=bottom;verticalAlign=top;html=1;outlineConnect=0;" parent="1" vertex="1">
          <mxGeometry x="-60" y="112.5" width="30" height="60" as="geometry" />
        </mxCell>
        <mxCell id="kK68dIsaC33i2wqPtEw8-2" value="Front End" style="rounded=0;whiteSpace=wrap;html=1;" parent="1" vertex="1">
          <mxGeometry x="-10" y="102.5" width="120" height="110" as="geometry" />
        </mxCell>
        <mxCell id="kK68dIsaC33i2wqPtEw8-4" value="&lt;b&gt;Públicos&lt;/b&gt;&lt;div&gt;&lt;br&gt;&lt;/div&gt;&lt;div&gt;/&lt;div&gt;/swagger-ui&lt;/div&gt;&lt;/div&gt;" style="text;html=1;align=center;verticalAlign=middle;whiteSpace=wrap;rounded=0;" parent="1" vertex="1">
          <mxGeometry x="710" y="30" width="70" height="52.5" as="geometry" />
        </mxCell>
        <mxCell id="kK68dIsaC33i2wqPtEw8-5" value="&lt;div style=&quot;forced-color-adjust: none; color: rgb(0, 0, 0); font-family: Helvetica; font-size: 12px; font-style: normal; font-variant-ligatures: normal; font-variant-caps: normal; letter-spacing: normal; orphans: 2; text-align: center; text-indent: 0px; text-transform: none; widows: 2; word-spacing: 0px; -webkit-text-stroke-width: 0px; white-space: normal; background-color: rgb(236, 236, 236); text-decoration-thickness: initial; text-decoration-style: initial; text-decoration-color: initial;&quot;&gt;&lt;b&gt;Protegidos&lt;/b&gt;&lt;/div&gt;&lt;div style=&quot;forced-color-adjust: none; color: rgb(0, 0, 0); font-family: Helvetica; font-size: 12px; font-style: normal; font-variant-ligatures: normal; font-variant-caps: normal; font-weight: 400; letter-spacing: normal; orphans: 2; text-align: center; text-indent: 0px; text-transform: none; widows: 2; word-spacing: 0px; -webkit-text-stroke-width: 0px; white-space: normal; background-color: rgb(236, 236, 236); text-decoration-thickness: initial; text-decoration-style: initial; text-decoration-color: initial;&quot;&gt;(autenticação)&lt;/div&gt;&lt;div style=&quot;forced-color-adjust: none; color: rgb(0, 0, 0); font-family: Helvetica; font-size: 12px; font-style: normal; font-variant-ligatures: normal; font-variant-caps: normal; font-weight: 400; letter-spacing: normal; orphans: 2; text-align: center; text-indent: 0px; text-transform: none; widows: 2; word-spacing: 0px; -webkit-text-stroke-width: 0px; white-space: normal; background-color: rgb(236, 236, 236); text-decoration-thickness: initial; text-decoration-style: initial; text-decoration-color: initial;&quot;&gt;/contato&lt;/div&gt;&lt;div style=&quot;forced-color-adjust: none; color: rgb(0, 0, 0); font-family: Helvetica; font-size: 12px; font-style: normal; font-variant-ligatures: normal; font-variant-caps: normal; font-weight: 400; letter-spacing: normal; orphans: 2; text-align: center; text-indent: 0px; text-transform: none; widows: 2; word-spacing: 0px; -webkit-text-stroke-width: 0px; white-space: normal; background-color: rgb(236, 236, 236); text-decoration-thickness: initial; text-decoration-style: initial; text-decoration-color: initial;&quot;&gt;/pedido&lt;/div&gt;" style="text;whiteSpace=wrap;html=1;" parent="1" vertex="1">
          <mxGeometry x="710" y="110" width="90" height="70" as="geometry" />
        </mxCell>
        <mxCell id="kK68dIsaC33i2wqPtEw8-6" value="" style="shape=cylinder3;whiteSpace=wrap;html=1;boundedLbl=1;backgroundOutline=1;size=15;" parent="1" vertex="1">
          <mxGeometry x="595" y="260" width="195" height="210" as="geometry" />
        </mxCell>
        <mxCell id="kK68dIsaC33i2wqPtEw8-7" value="contato" style="rounded=1;whiteSpace=wrap;html=1;" parent="1" vertex="1">
          <mxGeometry x="630" y="310" width="80" height="20" as="geometry" />
        </mxCell>
        <mxCell id="kK68dIsaC33i2wqPtEw8-8" value="pedido&lt;span style=&quot;color: rgba(0, 0, 0, 0); font-family: monospace; font-size: 0px; text-align: start; text-wrap-mode: nowrap;&quot;&gt;%3CmxGraphModel%3E%3Croot%3E%3CmxCell%20id%3D%220%22%2F%3E%3CmxCell%20id%3D%221%22%20parent%3D%220%22%2F%3E%3CmxCell%20id%3D%222%22%20value%3D%22contato%22%20style%3D%22rounded%3D1%3BwhiteSpace%3Dwrap%3Bhtml%3D1%3B%22%20vertex%3D%221%22%20parent%3D%221%22%3E%3CmxGeometry%20x%3D%22630%22%20y%3D%22310%22%20width%3D%2280%22%20height%3D%2220%22%20as%3D%22geometry%22%2F%3E%3C%2FmxCell%3E%3C%2Froot%3E%3C%2FmxGraphModel%3E&lt;/span&gt;" style="rounded=1;whiteSpace=wrap;html=1;" parent="1" vertex="1">
          <mxGeometry x="630" y="355" width="80" height="20" as="geometry" />
        </mxCell>
        <mxCell id="kK68dIsaC33i2wqPtEw8-9" value="usuario" style="rounded=1;whiteSpace=wrap;html=1;" parent="1" vertex="1">
          <mxGeometry x="630" y="400" width="80" height="20" as="geometry" />
        </mxCell>
        <mxCell id="GD_6Yc_NIj7z0cRtYeoW-1" value="" style="endArrow=classic;html=1;rounded=0;exitX=1.017;exitY=0.135;exitDx=0;exitDy=0;exitPerimeter=0;entryX=-0.009;entryY=0.14;entryDx=0;entryDy=0;entryPerimeter=0;" edge="1" parent="1" source="kK68dIsaC33i2wqPtEw8-2" target="GD_6Yc_NIj7z0cRtYeoW-3">
          <mxGeometry width="50" height="50" relative="1" as="geometry">
            <mxPoint x="400" y="220" as="sourcePoint" />
            <mxPoint x="450" y="170" as="targetPoint" />
          </mxGeometry>
        </mxCell>
        <mxCell id="GD_6Yc_NIj7z0cRtYeoW-2" value="HTTP Request GET /contatos&lt;div&gt;Authorization: Bearer s3kh24kh2...&lt;/div&gt;" style="edgeLabel;html=1;align=center;verticalAlign=middle;resizable=0;points=[];" vertex="1" connectable="0" parent="GD_6Yc_NIj7z0cRtYeoW-1">
          <mxGeometry x="-0.118" y="1" relative="1" as="geometry">
            <mxPoint as="offset" />
          </mxGeometry>
        </mxCell>
        <mxCell id="GD_6Yc_NIj7z0cRtYeoW-3" value="JwT Filter" style="rounded=0;whiteSpace=wrap;html=1;" vertex="1" parent="1">
          <mxGeometry x="350" y="102.5" width="50" height="67.5" as="geometry" />
        </mxCell>
        <mxCell id="GD_6Yc_NIj7z0cRtYeoW-4" value="Backend Spring Boot" style="rounded=0;whiteSpace=wrap;html=1;" vertex="1" parent="1">
          <mxGeometry x="580" y="102.5" width="120" height="117.5" as="geometry" />
        </mxCell>
        <mxCell id="GD_6Yc_NIj7z0cRtYeoW-5" value="" style="endArrow=classic;startArrow=classic;html=1;rounded=0;exitX=0.399;exitY=0.01;exitDx=0;exitDy=0;exitPerimeter=0;entryX=0.5;entryY=1;entryDx=0;entryDy=0;" edge="1" parent="1" source="kK68dIsaC33i2wqPtEw8-6" target="GD_6Yc_NIj7z0cRtYeoW-4">
          <mxGeometry width="50" height="50" relative="1" as="geometry">
            <mxPoint x="400" y="220" as="sourcePoint" />
            <mxPoint x="450" y="170" as="targetPoint" />
          </mxGeometry>
        </mxCell>
        <mxCell id="GD_6Yc_NIj7z0cRtYeoW-6" value="" style="endArrow=classic;html=1;rounded=0;exitX=0.015;exitY=0.814;exitDx=0;exitDy=0;exitPerimeter=0;entryX=1.017;entryY=0.852;entryDx=0;entryDy=0;entryPerimeter=0;" edge="1" parent="1" source="GD_6Yc_NIj7z0cRtYeoW-4" target="kK68dIsaC33i2wqPtEw8-2">
          <mxGeometry width="50" height="50" relative="1" as="geometry">
            <mxPoint x="400" y="220" as="sourcePoint" />
            <mxPoint x="450" y="170" as="targetPoint" />
          </mxGeometry>
        </mxCell>
        <mxCell id="GD_6Yc_NIj7z0cRtYeoW-7" value="HTTP Response detalhes dos contatos" style="edgeLabel;html=1;align=center;verticalAlign=middle;resizable=0;points=[];" vertex="1" connectable="0" parent="GD_6Yc_NIj7z0cRtYeoW-6">
          <mxGeometry x="0.1577" relative="1" as="geometry">
            <mxPoint as="offset" />
          </mxGeometry>
        </mxCell>
        <mxCell id="GD_6Yc_NIj7z0cRtYeoW-8" value="Security Filter" style="rounded=0;whiteSpace=wrap;html=1;" vertex="1" parent="1">
          <mxGeometry x="520" y="102.5" width="50" height="67.5" as="geometry" />
        </mxCell>
        <mxCell id="GD_6Yc_NIj7z0cRtYeoW-10" value="Auth Filter" style="rounded=0;whiteSpace=wrap;html=1;" vertex="1" parent="1">
          <mxGeometry x="440" y="102.5" width="50" height="67.5" as="geometry" />
        </mxCell>
        <mxCell id="GD_6Yc_NIj7z0cRtYeoW-11" value="" style="endArrow=classic;html=1;rounded=0;exitX=0.977;exitY=0.437;exitDx=0;exitDy=0;exitPerimeter=0;entryX=-0.001;entryY=0.404;entryDx=0;entryDy=0;entryPerimeter=0;" edge="1" parent="1" source="GD_6Yc_NIj7z0cRtYeoW-3" target="GD_6Yc_NIj7z0cRtYeoW-10">
          <mxGeometry width="50" height="50" relative="1" as="geometry">
            <mxPoint x="400" y="220" as="sourcePoint" />
            <mxPoint x="450" y="170" as="targetPoint" />
          </mxGeometry>
        </mxCell>
        <mxCell id="GD_6Yc_NIj7z0cRtYeoW-12" value="" style="endArrow=classic;html=1;rounded=0;exitX=1;exitY=0.5;exitDx=0;exitDy=0;entryX=0;entryY=0.5;entryDx=0;entryDy=0;" edge="1" parent="1" source="GD_6Yc_NIj7z0cRtYeoW-10" target="GD_6Yc_NIj7z0cRtYeoW-8">
          <mxGeometry width="50" height="50" relative="1" as="geometry">
            <mxPoint x="448" y="142" as="sourcePoint" />
            <mxPoint x="470" y="140" as="targetPoint" />
            <Array as="points" />
          </mxGeometry>
        </mxCell>
      </root>
    </mxGraphModel>
  </diagram>
</mxfile>
